<?xml version="1.0" encoding="utf-8"?>
<!-- Generator: Adobe Illustrator 24.3.0, SVG Export Plug-In . SVG Version: 6.00 Build 0)  -->
<svg version="1.1" id="Layer_1" xmlns="http://www.w3.org/2000/svg" xmlns:xlink="http://www.w3.org/1999/xlink" x="0px" y="0px"
	 viewBox="0 0 1000 1000" style="enable-background:new 0 0 1000 1000;" xml:space="preserve">
<style type="text/css">
	.st0{fill:#521011;stroke:#FFFFFF;}
	.st1{fill:#FFFFFF;}
	.st2{fill:#6B4745;}
	.st3{fill:#D69659;}
	.st4{fill:#E5AB26;}
	.st5{fill:#6E6E6E;}
	.st6{fill:#8C5C29;}
	.st7{fill:#C7C7A8;}
	.st8{fill:#870000;}
	.st9{fill:#D47800;}
	.st10{fill:#593D1C;}
	.st11{fill:#BF4D29;}
	.st12{fill:#80BDA3;}
	.st13{fill:#665742;}
</style>
<path class="st0" d="M184.5,0.7C82.6,0.7,0,83.3,0,185.2v630.3C0,917.4,82.6,1000,184.5,1000h630.3c101.9,0,184.5-82.6,184.5-184.5
	V185.2c0-101.9-82.6-184.5-184.5-184.5H184.5z"/>
<path class="st1" d="M434.1,501.5c0.9,5.1,2.9,9.7,5.2,14.4c2.2,4.4,5.5,8.5,8.7,12.3c4,4.8,8.4,8.9,13.6,12.4c4.4,3,9,5,14,7
	c5.7,2.2,11.9,3,18,3.4c6,0.4,12.2-0.7,17.9-2.4c6.9-2.1,12.8-5.9,17.9-10.6c3.9-3.4,6.5-8.1,8.5-12.7c2.2-4.9,3.9-9.7,4.9-14.9
	c2.4-12,2.2-24.2-2.5-35.7c-2.5-6.2-6-12.2-10.4-17.4c-0.6-1.2-1.3-2.3-2-3.4c-3.6-5.8-8.9-10.3-14.9-13.7
	c-4.9-2.8-10.9-4.3-16.6-4.8c-2.7-0.2-5.4-0.1-8,0.3c-0.6,0-1.2-0.1-1.7-0.1c-6.7-0.3-13,2-18.9,4.6c-2.7,1.2-4.9,3.3-7.2,5.1
	c-2,1.6-4,4.2-5.4,6.2c-4.3,6.1-6.5,13.3-7.8,20.7c-7.9,1-13.5,7.4-13.8,15c-0.1,1.8-0.2,3.5-0.2,5.3
	C433.5,495.6,433.7,498.5,434.1,501.5"/>
<path class="st2" d="M379.6,498.9c8.7,0,15.9-6.9,15.9-15.2c0-8.3-7.2-15.2-15.9-15.2c-8.7,0-15.9,6.9-15.9,15.2
	C363.8,492,371,498.9,379.6,498.9"/>
<path class="st3" d="M394.8,461.9c8.7,0,15.9-6.9,15.9-15.2c0-8.3-7.2-15.2-15.9-15.2c-8.6,0-15.9,6.9-15.9,15.2
	C379,455,386.2,461.9,394.8,461.9"/>
<path class="st4" d="M416.1,428.5c8.6,0,15.8-6.9,15.8-15.2c0-8.3-7.2-15.2-15.8-15.2c-8.7,0-15.9,6.9-15.9,15.2
	C400.2,421.6,407.4,428.5,416.1,428.5"/>
<path class="st1" d="M471.5,403.8c8.7,0,15.9-6.9,15.9-15.2c0-8.3-7.2-15.2-15.9-15.2c-8.6,0-15.9,6.9-15.9,15.2
	C455.7,396.9,462.9,403.8,471.5,403.8"/>
<path class="st5" d="M520.1,406c8.6,0,15.8-6.9,15.8-15.2c0-8.3-7.2-15.2-15.8-15.2c-8.7,0-15.9,6.9-15.9,15.2
	C504.3,399.1,511.5,406,520.1,406"/>
<path class="st6" d="M560.4,419.8c8.7,0,15.9-6.9,15.9-15.2c0-8.3-7.2-15.2-15.9-15.2c-8.7,0-15.9,6.9-15.9,15.2
	C544.5,412.9,551.7,419.8,560.4,419.8"/>
<path class="st7" d="M590,452.5c8.7,0,15.9-6.9,15.9-15.2c0-8.3-7.2-15.2-15.9-15.2c-8.6,0-15.8,6.9-15.8,15.2
	C574.1,445.6,581.3,452.5,590,452.5"/>
<path class="st3" d="M605.2,501.8c8.6,0,15.9-6.9,15.9-15.2c0-8.3-7.2-15.2-15.9-15.2c-8.7,0-15.9,6.9-15.9,15.2
	C589.3,494.9,596.5,501.8,605.2,501.8"/>
<path class="st3" d="M600.6,552.7c8.7,0,15.9-6.9,15.9-15.2s-7.2-15.2-15.9-15.2c-8.6,0-15.9,6.9-15.9,15.2S592,552.7,600.6,552.7"
	/>
<path class="st8" d="M578.6,591.9c8.6,0,15.9-6.9,15.9-15.2c0-8.3-7.2-15.2-15.9-15.2c-8.7,0-15.9,6.9-15.9,15.2
	C562.7,585,569.9,591.9,578.6,591.9"/>
<path class="st2" d="M531.5,612.2c8.6,0,15.9-6.9,15.9-15.2c0-8.3-7.2-15.2-15.9-15.2c-8.7,0-15.9,6.9-15.9,15.2
	C515.6,605.3,522.9,612.2,531.5,612.2"/>
<path class="st6" d="M473,613.6c8.7,0,15.9-6.9,15.9-15.2c0-8.3-7.2-15.2-15.9-15.2c-8.6,0-15.9,6.9-15.9,15.2
	C457.2,606.7,464.4,613.6,473,613.6"/>
<path class="st7" d="M428.2,589c8.6,0,15.9-6.9,15.9-15.2c0-8.3-7.3-15.2-15.9-15.2c-8.7,0-15.9,6.9-15.9,15.2
	C412.4,582.1,419.6,589,428.2,589"/>
<path class="st8" d="M403.2,566.5c8.6,0,15.9-6.9,15.9-15.2c0-8.3-7.2-15.2-15.9-15.2c-8.7,0-15.9,6.9-15.9,15.2
	C387.3,559.5,394.5,566.5,403.2,566.5"/>
<path class="st5" d="M388.8,536.7c8.6,0,15.8-6.9,15.8-15.2c0-8.3-7.2-15.2-15.8-15.2c-8.7,0-15.9,6.9-15.9,15.2
	C372.9,529.8,380.1,536.7,388.8,536.7"/>
<path class="st2" d="M337.1,562.4c11.7,0,21.5-9.3,21.5-20.5c0-11.2-9.8-20.5-21.5-20.5c-11.7,0-21.5,9.3-21.5,20.5
	C315.6,553,325.4,562.4,337.1,562.4"/>
<path class="st5" d="M370.5,607.4c11.7,0,21.5-9.3,21.5-20.5c0-11.2-9.8-20.5-21.5-20.5c-11.7,0-21.5,9.3-21.5,20.5
	C349,598,358.8,607.4,370.5,607.4"/>
<path class="st9" d="M409.3,654.6c11.7,0,21.5-9.3,21.5-20.5c0-11.2-9.8-20.5-21.5-20.5c-11.7,0-21.5,9.4-21.5,20.5
	C387.8,645.2,397.5,654.6,409.3,654.6"/>
<path class="st3" d="M460.9,665.5c11.7,0,21.5-9.3,21.5-20.5c0-11.2-9.8-20.5-21.5-20.5c-11.7,0-21.5,9.3-21.5,20.5
	C439.4,656.1,449.2,665.5,460.9,665.5"/>
<path class="st1" d="M527,661.1c11.7,0,21.5-9.4,21.5-20.6c0-11.2-9.8-20.5-21.5-20.5c-11.7,0-21.5,9.3-21.5,20.5
	C505.5,651.7,515.3,661.1,527,661.1"/>
<path class="st10" d="M592.3,638.6c11.7,0,21.5-9.3,21.5-20.5c0-11.2-9.8-20.5-21.5-20.5c-11.7,0-21.5,9.3-21.5,20.5
	C570.8,629.3,580.6,638.6,592.3,638.6"/>
<path class="st6" d="M631.7,611c11.7,0,21.5-9.3,21.5-20.5c0-11.2-9.8-20.5-21.5-20.5c-11.7,0-21.5,9.3-21.5,20.5
	C610.3,601.7,620,611,631.7,611"/>
<path class="st11" d="M656,571.1c11.7,0,21.5-9.3,21.5-20.5c0-11.2-9.8-20.5-21.5-20.5c-11.7,0-21.5,9.3-21.5,20.5
	C634.6,561.7,644.4,571.1,656,571.1"/>
<path class="st11" d="M663.7,524.6c11.7,0,21.5-9.3,21.5-20.5c0-11.2-9.8-20.5-21.5-20.5c-11.7,0-21.5,9.3-21.5,20.5
	C642.2,515.3,651.9,524.6,663.7,524.6"/>
<path class="st6" d="M656,460c11.7,0,21.5-9.3,21.5-20.5c0-11.2-9.8-20.5-21.5-20.5c-11.7,0-21.5,9.3-21.5,20.5
	C634.6,450.7,644.4,460,656,460"/>
<path class="st9" d="M628.7,415c11.7,0,21.5-9.3,21.5-20.5c0-11.2-9.8-20.5-21.5-20.5c-11.7,0-21.5,9.3-21.5,20.5
	C607.2,405.7,617,415,628.7,415"/>
<path class="st11" d="M583.1,383.1c11.7,0,21.5-9.3,21.5-20.5c0-11.2-9.8-20.5-21.5-20.5c-11.7,0-21.5,9.3-21.5,20.5
	C561.7,373.7,571.4,383.1,583.1,383.1"/>
<path class="st12" d="M524.7,372.9c11.7,0,21.5-9.3,21.5-20.5c0-11.2-9.8-20.5-21.5-20.5c-11.7,0-21.5,9.3-21.5,20.5
	C503.2,363.6,513,372.9,524.7,372.9"/>
<path class="st4" d="M466.2,375.1c11.7,0,21.5-9.3,21.5-20.5c0-11.2-9.8-20.5-21.5-20.5c-11.7,0-21.5,9.3-21.5,20.5
	C444.7,365.7,454.5,375.1,466.2,375.1"/>
<path class="st10" d="M410.8,382.3c11.7,0,21.5-9.3,21.5-20.5c0-11.2-9.8-20.5-21.5-20.5c-11.7,0-21.5,9.4-21.5,20.5
	C389.3,373,399.1,382.3,410.8,382.3"/>
<path class="st2" d="M372,409.2c11.7,0,21.5-9.3,21.5-20.5c0-11.2-9.8-20.5-21.5-20.5c-11.7,0-21.5,9.3-21.5,20.5
	C350.6,399.9,360.3,409.2,372,409.2"/>
<path class="st12" d="M339.4,455.7c11.7,0,21.5-9.3,21.5-20.5c0-11.2-9.8-20.5-21.5-20.5c-11.7,0-21.5,9.3-21.5,20.5
	C317.9,446.3,327.7,455.7,339.4,455.7"/>
<path class="st2" d="M326.5,516.6c11.7,0,21.5-9.3,21.5-20.5c0-11.2-9.8-20.5-21.5-20.5c-11.7,0-21.5,9.3-21.5,20.5
	C305,507.3,314.8,516.6,326.5,516.6"/>
<path class="st2" d="M293,600.1c11.7,0,21.5-9.3,21.5-20.5c0-11.2-9.8-20.5-21.5-20.5c-11.7,0-21.5,9.4-21.5,20.5
	C271.6,590.8,281.4,600.1,293,600.1"/>
<path class="st6" d="M329.5,648.7c11.7,0,21.5-9.3,21.5-20.5c0-11.2-9.8-20.5-21.5-20.5c-11.7,0-21.5,9.3-21.5,20.5
	C308,639.4,317.8,648.7,329.5,648.7"/>
<path class="st5" d="M390.3,695.2c11.7,0,21.5-9.3,21.5-20.5c0-11.2-9.8-20.5-21.5-20.5c-11.7,0-21.5,9.3-21.5,20.5
	C368.8,685.9,378.6,695.2,390.3,695.2"/>
<path class="st7" d="M457.1,717.7c11.7,0,21.5-9.3,21.5-20.5c0-11.2-9.8-20.5-21.5-20.5c-11.7,0-21.5,9.3-21.5,20.5
	C435.6,708.4,445.4,717.7,457.1,717.7"/>
<path class="st11" d="M517.9,723.5c11.7,0,21.5-9.3,21.5-20.5c0-11.2-9.8-20.5-21.5-20.5c-11.7,0-21.5,9.3-21.5,20.5
	C496.4,714.2,506.1,723.5,517.9,723.5"/>
<path class="st6" d="M578.6,698.1c11.7,0,21.5-9.3,21.5-20.5c0-11.2-9.8-20.5-21.5-20.5c-11.7,0-21.5,9.3-21.5,20.5
	C557.1,688.8,566.9,698.1,578.6,698.1"/>
<path class="st12" d="M641.6,680.7c11.7,0,21.5-9.3,21.5-20.5c0-11.2-9.8-20.5-21.5-20.5c-11.7,0-21.5,9.3-21.5,20.5
	C620.2,671.4,629.9,680.7,641.6,680.7"/>
<path class="st13" d="M677.3,629.9c11.7,0,21.5-9.3,21.5-20.5c0-11.2-9.8-20.5-21.5-20.5c-11.7,0-21.5,9.3-21.5,20.5
	C655.8,620.5,665.6,629.9,677.3,629.9"/>
<path class="st1" d="M709.2,583.4c11.7,0,21.5-9.3,21.5-20.5c0-11.2-9.8-20.5-21.5-20.5c-11.7,0-21.5,9.3-21.5,20.5
	C687.7,574.1,697.5,583.4,709.2,583.4"/>
<path class="st10" d="M721.4,524.6c11.7,0,21.5-9.3,21.5-20.5c0-11.2-9.8-20.5-21.5-20.5c-11.7,0-21.5,9.3-21.5,20.5
	C699.9,515.3,709.7,524.6,721.4,524.6"/>
<path class="st5" d="M712.2,458.6c11.7,0,21.5-9.3,21.5-20.5c0-11.2-9.8-20.5-21.5-20.5c-11.7,0-21.5,9.3-21.5,20.5
	C690.8,449.2,700.5,458.6,712.2,458.6"/>
<path class="st9" d="M685.7,402.7c11.7,0,21.5-9.3,21.5-20.5c0-11.2-9.8-20.6-21.5-20.6c-11.7,0-21.5,9.3-21.5,20.6
	C664.2,393.3,674,402.7,685.7,402.7"/>
<path class="st11" d="M643.9,356.9c11.7,0,21.5-9.3,21.5-20.5c0-11.2-9.8-20.5-21.5-20.5c-11.7,0-21.5,9.4-21.5,20.5
	C622.4,347.6,632.2,356.9,643.9,356.9"/>
<path class="st1" d="M586.9,330.1c11.7,0,21.5-9.3,21.5-20.5c0-11.2-9.8-20.5-21.5-20.5c-11.7,0-21.5,9.3-21.5,20.5
	C565.5,320.7,575.3,330.1,586.9,330.1"/>
<path class="st2" d="M522.4,319.2c11.7,0,21.5-9.3,21.5-20.5c0-11.2-9.8-20.5-21.5-20.5c-11.7,0-21.5,9.3-21.5,20.5
	C500.9,309.8,510.7,319.2,522.4,319.2"/>
<path class="st3" d="M448.7,321.4c11.7,0,21.5-9.3,21.5-20.5c0-11.2-9.8-20.5-21.5-20.5c-11.7,0-21.5,9.3-21.5,20.5
	C427.3,312,437,321.4,448.7,321.4"/>
<path class="st3" d="M386.5,341c11.7,0,21.5-9.3,21.5-20.5c0-11.2-9.8-20.5-21.5-20.5c-11.7,0-21.5,9.3-21.5,20.5
	C365,331.6,374.8,341,386.5,341"/>
<path class="st4" d="M328.8,370.7c11.7,0,21.5-9.3,21.5-20.5c0-11.2-9.8-20.5-21.5-20.5c-11.7,0-21.5,9.3-21.5,20.5
	C307.3,361.4,317,370.7,328.8,370.7"/>
<path class="st2" d="M293,429.5c11.7,0,21.5-9.3,21.5-20.5c0-11.2-9.8-20.5-21.5-20.5c-11.7,0-21.5,9.3-21.5,20.5
	C271.6,420.2,281.4,429.5,293,429.5"/>
<path class="st13" d="M282.4,477.4c11.7,0,21.5-9.4,21.5-20.6c0-11.2-9.8-20.5-21.5-20.5c-11.7,0-21.5,9.3-21.5,20.5
	C261,468.1,270.7,477.4,282.4,477.4"/>
<path class="st4" d="M277.1,539.9c11.7,0,21.5-9.3,21.5-20.5c0-11.2-9.8-20.5-21.5-20.5c-11.7,0-21.5,9.3-21.5,20.5
	C255.6,530.5,265.4,539.9,277.1,539.9"/>
<path class="st11" d="M272.6,689.5c14.3,0,26.2-11.4,26.2-25c0-13.6-11.9-25-26.2-25c-14.2,0-26.1,11.4-26.1,25
	C246.4,678.1,258.3,689.5,272.6,689.5"/>
<path class="st8" d="M338.6,732.3c14.3,0,26.2-11.4,26.2-25c0-13.6-11.9-25-26.2-25c-14.3,0-26.2,11.4-26.2,25
	C312.5,721,324.4,732.3,338.6,732.3"/>
<path class="st1" d="M405.5,751.2c14.2,0,26.1-11.4,26.1-25c0-13.6-11.9-25-26.1-25c-14.3,0-26.2,11.4-26.2,25
	C379.3,739.9,391.2,751.2,405.5,751.2"/>
<path class="st11" d="M473.8,776.6c14.3,0,26.2-11.4,26.2-25c0-13.6-11.9-25-26.2-25c-14.3,0-26.2,11.4-26.2,25
	C447.6,765.3,459.5,776.6,473.8,776.6"/>
<path class="st9" d="M538.4,772.3c14.2,0,26.2-11.4,26.2-25c0-13.6-11.9-25-26.2-25c-14.3,0-26.2,11.4-26.2,25
	C512.2,760.9,524.1,772.3,538.4,772.3"/>
<path class="st9" d="M605.9,753.4c14.2,0,26.1-11.4,26.1-25c0-13.6-11.9-25-26.1-25c-14.3,0-26.2,11.4-26.2,25
	C579.8,742,591.7,753.4,605.9,753.4"/>
<path class="st3" d="M684.9,719.3c14.3,0,26.2-11.4,26.2-25c0-13.6-11.9-25-26.2-25c-14.2,0-26.1,11.4-26.1,25
	C658.8,707.9,670.7,719.3,684.9,719.3"/>
<path class="st10" d="M737.3,664.1c14.2,0,26.1-11.4,26.1-25c0-13.6-11.9-25-26.1-25c-14.3,0-26.1,11.4-26.1,25
	C711.2,652.7,723,664.1,737.3,664.1"/>
<path class="st9" d="M766.2,593.7c14.3,0,26.2-11.4,26.2-25c0-13.6-11.9-25-26.2-25c-14.3,0-26.2,11.4-26.2,25
	C740,582.3,751.9,593.7,766.2,593.7"/>
<path class="st9" d="M786.7,539.2c14.3,0,26.2-11.4,26.2-25s-11.9-25-26.2-25c-14.2,0-26.1,11.4-26.1,25S772.4,539.2,786.7,539.2"/>
<path class="st3" d="M782.1,488.4c14.3,0,26.1-11.4,26.1-25c0-13.6-11.9-25-26.1-25c-14.3,0-26.2,11.4-26.2,25
	C756,477.1,767.8,488.4,782.1,488.4"/>
<path class="st2" d="M753.3,399.9c14.3,0,26.2-11.4,26.2-25c0-13.6-11.9-25-26.2-25c-14.3,0-26.2,11.4-26.2,25
	C727.1,388.5,739,399.9,753.3,399.9"/>
<path class="st11" d="M717.6,346.9c14.3,0,26.1-11.4,26.1-25s-11.9-25-26.1-25c-14.2,0-26.1,11.4-26.1,25S703.3,346.9,717.6,346.9"
	/>
<path class="st2" d="M665.9,309.9c14.2,0,26.2-11.4,26.2-25c0-13.6-11.9-25-26.2-25c-14.3,0-26.2,11.4-26.2,25
	C639.8,298.5,651.7,309.9,665.9,309.9"/>
<path class="st1" d="M593.8,272.8c14.3,0,26.2-11.4,26.2-25c0-13.6-11.9-25-26.2-25c-14.3,0-26.2,11.4-26.2,25
	C567.6,261.5,579.5,272.8,593.8,272.8"/>
<path class="st6" d="M523.2,267c14.3,0,26.2-11.4,26.2-25c0-13.6-11.9-25-26.2-25c-14.2,0-26.2,11.4-26.2,25
	C497,255.7,508.9,267,523.2,267"/>
<path class="st5" d="M450.3,272.8c14.2,0,26.2-11.4,26.2-25c0-13.6-11.9-25-26.2-25c-14.3,0-26.2,11.4-26.2,25
	C424.1,261.5,436,272.8,450.3,272.8"/>
<path class="st6" d="M373.6,283.7c14.3,0,26.2-11.4,26.2-25c0-13.6-11.9-25-26.2-25c-14.3,0-26.2,11.4-26.2,25
	C347.4,272.4,359.3,283.7,373.6,283.7"/>
<path class="st4" d="M313.6,331.6c14.3,0,26.2-11.4,26.2-25c0-13.6-11.9-25-26.2-25c-14.2,0-26.2,11.4-26.2,25
	C287.4,320.3,299.3,331.6,313.6,331.6"/>
<path class="st2" d="M258.9,373.7c14.3,0,26.2-11.4,26.2-25c0-13.6-11.9-25-26.2-25c-14.3,0-26.2,11.4-26.2,25
	C232.7,362.4,244.6,373.7,258.9,373.7"/>
<path class="st7" d="M227.8,440.5c14.2,0,26.1-11.4,26.1-25c0-13.6-11.9-25-26.1-25c-14.3,0-26.2,11.4-26.2,25
	C201.6,429.2,213.5,440.5,227.8,440.5"/>
<path class="st1" d="M214.8,506.6c14.3,0,26.2-11.4,26.2-25c0-13.6-11.9-25-26.2-25c-14.3,0-26.2,11.4-26.2,25
	C188.7,495.2,200.6,506.6,214.8,506.6"/>
<path class="st8" d="M217.1,588.6c14.3,0,26.2-11.4,26.2-25c0-13.6-11.9-25-26.2-25c-14.3,0-26.2,11.4-26.2,25
	C191,577.2,202.9,588.6,217.1,588.6"/>
<path class="st13" d="M241.4,650.3c14.3,0,26.2-11.4,26.2-25c0-13.6-11.9-25-26.2-25c-14.2,0-26.1,11.4-26.1,25
	C215.3,638.9,227.2,650.3,241.4,650.3"/>
<path class="st6" d="M339.2,814.9c1.8,6.3,6.2,11.7,12,15c6,3.4,13.4,4.3,20.2,2.5c5.8-1.5,13.2-5.9,15.6-11.5
	c1.6-3.5,3.1-7.1,4.7-10.6c-0.9,2-1.8,4-2.6,6c3.5-7.8,8.4-15,13.1-22.2c7.6-11.6,2.7-27.5-9.4-34.2c-12.6-7-28.2-2.6-35.8,9
	c-2.6,4-5.2,8-7.7,12.1c-3.5,5.8-6.2,11.9-8.9,18.1c-0.4,0.9-0.8,1.8-1.2,2.7c-0.6,2.2-0.9,4.4-0.9,6.6
	C338.3,810.5,338.6,812.7,339.2,814.9 M341.9,795.6L341.9,795.6c0.2-0.5,0.4-1,0.7-1.6C342.3,794.6,342.1,795.1,341.9,795.6"/>
<path class="st13" d="M265.6,781.5c1.8,6.2,6.2,11.7,12,14.9c6.1,3.4,13.4,4.3,20.2,2.5c7-1.8,11.6-6,15.6-11.5
	c1.3-1.7,2.5-3.4,3.7-5c2.4-2.6,5-4.9,7.7-7.2c0.9-0.7,1.8-1.3,2.7-2c1.8-1.3,3.5-2.6,5.3-3.9c3.3-3.1,5.5-6.8,6.7-11
	c1.9-6.5,0.9-13.5-2.6-19.3c-3.4-5.6-9.1-9.8-15.6-11.5c-6.1-1.6-14.8-1.3-20.1,2.5c-5.3,3.8-10.7,7.6-15.7,11.8
	c-6.9,5.8-12,13.3-17.3,20.4c-2.5,3.4-3.6,7.9-3.6,12.3C264.6,777,265,779.4,265.6,781.5"/>
<path class="st11" d="M212.8,743.9c3.4,5.6,9.1,9.8,15.6,11.5c6.2,1.6,14.9,1.3,20.2-2.5c6.7-4.8,13.5-9.3,20.5-13.8
	c5.8-3.7,10.2-8.4,12-14.9c1.8-6.5,0.9-13.5-2.6-19.3c-6.9-11.2-23.9-16.5-35.8-9c-7,4.5-13.8,9-20.5,13.8c-1.7,1.3-3.5,2.6-5.3,3.9
	c-3.2,3.1-5.5,6.8-6.7,11c-0.6,2.2-0.9,4.4-0.9,6.6C209.2,735.7,210.4,740.1,212.8,743.9"/>
<path class="st11" d="M164.2,694.6c3.4,5.6,9.1,9.8,15.7,11.5c7.2,1.9,13.6,0.5,20.1-2.5c6-2.7,11.7-5.6,17.5-8.7
	c12.4-6.7,16.6-22.5,9.4-34.2c-7.2-11.8-23.4-15.7-35.8-9c-5.7,3.1-11.5,6-17.5,8.7c-5.8,2.6-10.3,9.1-12,14.9
	c-0.6,2.2-0.9,4.4-0.9,6.6C160.6,686.3,161.8,690.7,164.2,694.6"/>
<path class="st5" d="M122.8,631.3c3.8,13.1,18.4,21,32.2,17.4c3.5-0.9,7-2,10.6-2.4c-0.5,0.1-1.1,0.1-1.6,0.2
	c3.6-0.5,7.2-0.9,10.8-1.4c6.3-0.8,12.5-6.5,15.6-11.5c3.5-5.8,4.5-12.8,2.6-19.3c-1.8-6.3-6.2-11.7-12-14.9
	c-2.1-0.9-4.1-1.7-6.2-2.5c-4.7-1.2-9.3-1.2-13.9,0c-1.1,0.1-2.1,0.3-3.1,0.4c-3.3,0.4-6.6,0.7-9.8,1.4c-2.3,0.5-4.6,1.2-6.8,1.8
	c-11.5,3-19.2,13.3-19.2,24.3C121.9,626.9,122.2,629.1,122.8,631.3"/>
<path class="st11" d="M106.9,557.9c1.8,6.2,6.2,11.6,12,14.9c6.5,3.6,13,3.7,20.2,2.5c1.6-0.3,3.2-0.6,4.8-0.8
	c3.7-0.3,7.4-0.3,11-0.5c7-0.3,13.4-2.5,18.5-7.3c4.9-4.7,7.7-11.1,7.7-17.7c0-13.2-11.9-25.6-26.1-25c-3,0.1-5.9,0.2-8.9,0.4
	c-7,0.3-13.9,1.6-20.8,2.7c-6.4,1.1-12.4,6.3-15.6,11.5c-2.3,3.8-3.6,8.2-3.6,12.7C105.9,553.5,106.2,555.8,106.9,557.9"/>
<path class="st11" d="M96.2,491.1c1.8,6.2,6.2,11.7,12,14.9c6.4,3.6,13.1,3.9,20.2,2.5c2.8-0.5,5.5-1.2,8.3-1.7
	c1.5-0.1,3-0.2,4.5-0.3c7.1-0.6,13.3-2.3,18.5-7.3c4.9-4.7,7.7-11.1,7.7-17.7c0-6.6-2.8-13-7.7-17.7c-4.5-4.3-11.9-7.9-18.5-7.3
	c-9,0.7-17.8,2.1-26.7,3.8c-6.4,1.3-12.4,6.2-15.6,11.5c-2.3,3.9-3.5,8.3-3.5,12.7C95.3,486.8,95.6,489,96.2,491.1"/>
<path class="st13" d="M131.3,445.6h33.4c14.2,0,26.1-11.4,26.1-25c0-13.6-11.9-25-26.1-25h-33.4c-14.3,0-26.2,11.4-26.2,25
	C105.2,434.2,117.1,445.6,131.3,445.6"/>
<path class="st8" d="M144.4,364.3c3,5,9.4,10.7,15.6,11.5c9.1,1.2,18.2,2.3,27.5,3.1c6.6,0.5,13.9-3,18.5-7.3
	c4.9-4.7,7.7-11.1,7.7-17.7c0-6.6-2.8-13-7.7-17.7c-5.2-5-11.3-6.8-18.5-7.3c-3.9-0.3-7.8-0.6-11.6-1c-0.6-0.1-1.3-0.2-1.9-0.2
	c-2.3-0.3-4.7-0.6-7-0.9c-4.7,0-9.1,1.2-13.2,3.4c-5.8,3.3-10.2,8.7-12,14.9c-0.6,2.2-0.9,4.4-0.9,6.6
	C140.9,356,142.1,360.4,144.4,364.3"/>
<path class="st3" d="M180.5,282.8c1.8,6.5,6.2,11.3,12,14.9c6.1,3.8,12.2,7.7,18.2,11.6c5.6,3.6,13.8,4.2,20.2,2.5
	c6.5-1.7,12.2-5.9,15.6-11.5c3.5-5.8,4.5-12.8,2.6-19.3c-1.9-6.6-6.2-11.2-12-14.9c-6-3.9-12.1-7.8-18.2-11.6
	c-11.9-7.5-28.8-2.4-35.8,9c-2.3,3.8-3.5,8.2-3.5,12.7C179.6,278.4,179.9,280.6,180.5,282.8"/>
<path class="st13" d="M257.6,232.9c6.5,8.5,13.2,17,20,25.4c4,4.9,12.3,7.3,18.5,7.3c6.9,0,13.6-2.6,18.5-7.3
	c4.9-4.7,7.7-11.1,7.7-17.7c-0.3-2.2-0.6-4.4-0.9-6.6c-1.2-4.2-3.5-7.9-6.7-11c-4-5.1-8-10.2-11.9-15.3c-1.4-1.7-2.7-3.4-4.1-5.1
	c-3.3-3.1-7.1-5.2-11.6-6.4c-6.7-1.8-14.1-0.8-20.1,2.5c-5.9,3.2-10.2,8.7-12.1,14.9c-0.6,2.1-0.9,4.6-0.9,7.1
	C254,225.1,255,229.6,257.6,232.9"/>
<path class="st4" d="M321,181.9c3.9,10.4,7.2,21,11.4,31.2c0.9,2,1.8,4,2.6,6c2.3,3.8,5.5,6.8,9.4,9c6.1,3.4,13.4,4.3,20.2,2.5
	c6.6-1.7,12.2-5.9,15.6-11.5c3.2-5.3,5.1-13.3,2.7-19.2c-4.3-10.3-7.5-20.8-11.4-31.2c-2.4-6.3-5.8-11.5-12-14.9
	c-6-3.4-13.4-4.3-20.1-2.5c-6.5,1.7-12.2,5.9-15.6,11.5c-2.3,3.7-3.7,8.4-3.7,13C319.9,177.8,320.3,179.9,321,181.9"/>
<path class="st5" d="M394.7,175.4c1.1,6,2.3,11.9,3.3,17.9c0.1,0.8,0.2,1.6,0.3,2.3c0.3,2.2,0.6,4.4,0.9,6.7c1.2,4.2,3.5,7.9,6.7,11
	c4.9,4.7,11.6,7.3,18.5,7.3c6.9,0,13.6-2.6,18.5-7.3c4.4-4.2,8.5-11.5,7.7-17.7c-1.5-11.2-3.4-22.3-5.5-33.5
	c-1.2-6.1-6.6-11.9-12-14.9c-6.1-3.4-13.4-4.3-20.2-2.5c-6.5,1.7-12.2,5.9-15.6,11.5c-2.4,4-3.4,8-3.4,12.2
	C393.9,170.6,394.2,172.9,394.7,175.4"/>
<path class="st10" d="M469.9,161.6c0.1,0.6,0.2,1.1,0.2,1.7c0.7,7.1,0.3,14.3,0.3,21.4c0,13.6,11.9,25,26.2,25
	c14.2,0,26.1-11.4,26.1-25v-11.8v-4.3c0-6.8-1.5-13.6-2.5-20.3c-0.9-6-6.8-12-12-15c-6.1-3.4-13.4-4.3-20.2-2.5
	c-6.6,1.7-12.2,5.9-15.6,11.5c-0.9,2-1.8,4-2.6,6c-0.7,2.2-0.9,4.4-0.9,6.6C468.9,157.1,469.2,159.4,469.9,161.6"/>
<path class="st10" d="M548,204.5c4.9,4.7,11.6,7.3,18.5,7.3c6.9,0,13.6-2.7,18.5-7.3c1.4-1.7,2.7-3.4,4.1-5.1
	c2.4-3.9,3.5-8.1,3.6-12.6c1.3-9.5,2.1-18.7,2.3-28.3c0.2-13.6-12-25-26.2-25c-14.4,0-26,11.4-26.2,25c-0.1,9.6-1,18.8-2.3,28.3
	c-0.1,0.5-0.1,1.1-0.1,1.6C540.2,194.3,544,200.7,548,204.5"/>
<path class="st13" d="M630.1,223.3c13.6,3.6,28.6-4.3,32.2-17.5c1.6-6.1,3.2-12.2,5.3-18.2c4.5-13-5-27.2-18.3-30.7
	c-6.7-1.8-14.1-0.9-20.1,2.5c-6.1,3.4-9.9,8.6-12,14.9c-2.1,6-3.7,12.1-5.3,18.2c-0.6,2.1-0.8,4.3-0.8,6.4
	C611,210,618.5,220.3,630.1,223.3"/>
<path class="st4" d="M683.9,261.9c4.9,4.7,11.6,7.3,18.5,7.3c7.2,0,13.2-2.8,18.5-7.3c4.4-3.8,8.9-7.5,13.3-11.3
	c6.4-5.6,12.2-11.4,17.8-17.7c4.6-5.2,7.7-10.7,7.7-17.7c0-6.6-2.8-13-7.7-17.7c-4.9-4.7-11.6-7.3-18.5-7.3
	c-6.5,0-14.1,2.5-18.5,7.3c-5.5,6.1-11,11.8-17.2,17.2c-4.6,4-9.3,7.9-13.9,11.9c-5.2,4.4-7.6,10.7-7.6,17.1
	C676.2,250.4,679,257.2,683.9,261.9"/>
<path class="st9" d="M733,296c3.4,5.6,9.1,9.8,15.6,11.5c7.1,1.9,13.7,0.6,20.1-2.5c5.6-2.6,11.3-5.1,16.6-8.1
	c2.4-1.4,4.8-2.8,7.2-4.2c4.3-2.5,8.8-4.6,13.4-6.6c5.9-2.5,10.4-9.3,12-14.9c1.9-6.5,0.9-13.5-2.6-19.3c-3.4-5.6-9.1-9.8-15.7-11.5
	c-2.3-0.3-4.6-0.6-6.9-0.9c-4.7,0-9.1,1.2-13.2,3.4c-4.3,1.8-8.4,3.6-12.4,6c-2.4,1.4-4.7,2.8-7.1,4.2c-5.7,3.3-11.8,5.9-17.7,8.7
	c-5.9,2.8-10.3,9-12,14.9c-0.6,2.2-0.9,4.4-0.9,6.6C729.4,287.8,730.6,292.2,733,296"/>
<path class="st9" d="M774,346.1c7.3,12,23.3,15.5,35.8,9c7.7-4.1,15.7-7.6,23.5-11.6c12.6-6.4,16.4-22.8,9.4-34.2
	c-7.4-12.1-23.2-15.4-35.8-8.9c-7.8,4-15.8,7.5-23.5,11.6c-8.3,4.4-12.9,13-12.9,21.7C770.5,337.9,771.6,342.3,774,346.1"/>
<path class="st12" d="M808.4,416.5c4.4,4.2,12.1,8.1,18.5,7.3c6.7-0.8,13.4-1.5,20.1-2.6c8.4-1.4,15.9-4.2,23.5-8.1
	c12.6-6.4,16.4-22.8,9.4-34.2c-7.4-12.1-23.2-15.4-35.8-9c-0.7,0.4-1.5,0.8-2.2,1.1c-4,1.1-8,1.8-12.1,2.4c-1,0.1-1.9,0.2-2.9,0.4
	c-2.3,0.3-4.7,0.6-7,0.9c-4.4,1.2-8.3,3.3-11.5,6.4c-4.9,4.7-7.7,11.1-7.7,17.7C800.8,405.4,803.6,411.8,808.4,416.5"/>
<path class="st3" d="M820.7,487.5c1.8,6.3,6.2,11.7,12,14.9c6.2,3.5,13.2,4,20.1,2.5c3.9-0.8,7.7-1.7,11.6-2.4
	c4.4-0.3,8.8-0.4,13.3-0.4c14.3,0,26.2-11.4,26.2-25c0-13.7-11.9-25-26.2-25c-8.1,0-15.7,0.4-23.6,1.6c-5.1,0.8-10.2,1.8-15.2,2.9
	c-11.6,2.5-19.1,13.5-19.1,24.4C819.8,483.3,820.1,485.4,820.7,487.5"/>
<path class="st12" d="M843.6,577.7c8.2-0.3,16.8-1.3,25-0.6c1.5,0.2,3.1,0.4,4.6,0.6c4.7,0,9.1-1.1,13.2-3.4
	c5.8-3.3,10.2-8.7,12-14.9c1.9-6.5,0.9-13.5-2.6-19.3c-3.1-5-9.3-10.7-15.6-11.5c-5.4-0.7-10.7-1.7-16.1-1.6c-2,0-4,0.1-6,0.2
	c-4.8,0.2-9.6,0.3-14.4,0.5c-7,0.3-13.4,2.5-18.5,7.3c-4.9,4.7-7.6,11.1-7.6,17.7C817.5,565.9,829.4,578.3,843.6,577.7"/>
<path class="st5" d="M794.5,634.3c3.6,5.8,9,9.4,15.6,11.5c4.2,1.3,8.2,2.6,12.3,4c10.2,9.2,26.6,9.3,36.7-0.3
	c10-9.5,10.2-25.8,0-35.3c-2.7-2.5-5-4.3-8.2-6.6c-2.9-2.1-6.5-3-9.8-4.3c-1.6-0.6-3.1-1.1-4.6-1.6c-4.2-1.4-8.3-2.7-12.5-4.1
	c-13.5-4.3-28.5,4.8-32.2,17.5c-0.6,2.2-1,4.4-1,6.6C790.9,626.1,792.1,630.5,794.5,634.3 M824,650.3C824,650.3,824,650.4,824,650.3
	c0.3,0.2,0.4,0.3,0.6,0.4C824.3,650.6,824.2,650.5,824,650.3"/>
<path class="st5" d="M756.8,701.8c3.1,2.6,6.2,5.3,9.3,8c5.5,4.8,11.3,9.1,17.3,13.3c5.4,3.8,14,4.1,20.1,2.5
	c6.6-1.7,12.2-5.9,15.6-11.5c3.5-5.8,4.5-12.8,2.6-19.3c-0.9-2-1.8-4-2.6-6c-2.3-3.7-5.4-6.7-9.4-9c-0.7-0.5-1.4-1-2.1-1.5
	c-4.8-3.8-9.2-8.1-13.8-12c-5.3-4.5-11.2-7.3-18.5-7.3c-6.9,0-13.6,2.7-18.5,7.3c-4.9,4.7-7.6,11.5-7.6,18.3
	C749.1,691.1,751.6,697.4,756.8,701.8"/>
<path class="st5" d="M699.6,736.7c2.3,4.8,4.5,9.6,6.9,14.3c2.6,5,5.6,9.8,8.3,14.7c6.5,12.2,24.1,15.5,35.8,9
	c5.8-3.3,10.2-8.7,12-14.9c2-6.8,0.6-13.1-2.6-19.3c-2.5-4.7-5.4-9.2-7.8-13.9c-2.6-5-5-10.1-7.4-15.2c-2.7-5.6-9.7-9.9-15.7-11.5
	c-6.7-1.8-14.1-0.9-20.2,2.5c-5.8,3.3-10.2,8.7-12,14.9c-0.3,2.2-0.6,4.4-0.9,6.6C696,728.6,697.2,732.8,699.6,736.7"/>
<path class="st2" d="M448.7,858.6c14.3,0,26.1-11.3,26.2-25c0-9.8,0.7-19.4,1.5-29c0.5-6.3-3.1-13.3-7.7-17.7
	c-4.8-4.7-11.6-7.3-18.5-7.3c-6.9,0-13.6,2.6-18.5,7.3c-5.2,5-7.1,10.8-7.7,17.7c-0.8,9.7-1.5,19.3-1.5,29
	C422.6,847.3,434.5,858.6,448.7,858.6"/>
<path class="st11" d="M484.1,843.8c0,13.6,11.9,25,26.1,25c14.3,0,26.2-11.4,26.2-25v-24c0-13.6-11.9-25-26.2-25
	c-14.3,0-26.1,11.4-26.1,25V843.8z"/>
<path class="st9" d="M561.7,813.4c0.9,5.2,1.8,10.5,2.6,15.7c0.4,2.5,0.8,5,1.2,7.5c1.1,6.1,6.6,11.9,12,14.9
	c6,3.4,13.4,4.3,20.1,2.5c6.5-1.7,12.2-5.9,15.6-11.5c3.8-6.2,3.9-12.4,2.6-19.3c-0.3-1.6-0.6-3.2-0.8-4.7c0.1,0.7,0.2,1.4,0.3,2.1
	c-1-6.9-2.1-13.8-3.3-20.6c-1-6.1-6.7-12-12-14.9c-6-3.4-13.4-4.3-20.1-2.5c-6.6,1.7-12.2,5.9-15.7,11.5c-0.9,2-1.8,4-2.6,6
	c-0.6,2.2-0.9,4.4-0.9,6.7C560.8,809,561.1,811.2,561.7,813.4"/>
<path class="st9" d="M632.7,786c3.2,6.2,6.4,12.4,9.4,18.7c0.9,2,1.8,4,2.8,6c2.7,5.6,9.6,9.9,15.6,11.5c6.8,1.8,14.1,0.8,20.2-2.5
	c5.9-3.3,10.2-8.7,12-14.9c0.3-2.2,0.6-4.4,0.9-6.6c0-4.5-1.2-8.7-3.6-12.6c-0.2-0.5-0.4-0.9-0.7-1.4c-3.4-7.9-7.5-15.6-11.5-23.3
	c-3-5.6-9.5-9.9-15.6-11.5c-6.7-1.8-14.1-0.9-20.2,2.5c-5.8,3.3-10.2,8.7-12,14.9c-0.6,2.2-0.9,4.3-0.9,6.3
	C629.2,777.5,630.5,781.8,632.7,786"/>
</svg>
